<svg width="48" height="40" viewBox="0 0 48 40" fill="none" xmlns="http://www.w3.org/2000/svg">
<path fill-rule="evenodd" clip-rule="evenodd" d="M12 4.56116C8.18638 4.56116 4.99601 7.22962 4.19421 10.8012H43.8058C43.004 7.22962 39.8136 4.56116 36 4.56116H12ZM0 12.5612V12.8012V27.4612C0 34.0886 5.37258 39.4611 12 39.4611H36C42.6274 39.4611 48 34.0886 48 27.4612V12.8012V12.5612C48 5.93374 42.6274 0.561157 36 0.561157H12C5.37258 0.561157 0 5.93374 0 12.5612ZM44 27.4612V14.8012H4V27.4612C4 31.8794 7.58172 35.4611 12 35.4611H36C40.4183 35.4611 44 31.8794 44 27.4612ZM28.46 25.5013C27.3554 25.5013 26.46 26.3967 26.46 27.5013C26.46 28.6058 27.3554 29.5013 28.46 29.5013H36.04C37.1445 29.5013 38.04 28.6058 38.04 27.5013C38.04 26.3967 37.1445 25.5013 36.04 25.5013H28.46Z" fill="#3996BF"/>
</svg>
